<svg width="23" height="22" viewBox="0 0 23 22" fill="none" xmlns="http://www.w3.org/2000/svg">
<path d="M18.5 8.9375C18.5 10.9098 17.8598 12.7316 16.7812 14.2098L22.2211 19.6539C22.7582 20.191 22.7582 21.0633 22.2211 21.6004C21.684 22.1375 20.8117 22.1375 20.2746 21.6004L14.8348 16.1562C13.3566 17.2391 11.5348 17.875 9.5625 17.875C4.62539 17.875 0.625 13.8746 0.625 8.9375C0.625 4.00039 4.62539 0 9.5625 0C14.4996 0 18.5 4.00039 18.5 8.9375ZM9.5625 15.125C10.3751 15.125 11.1797 14.965 11.9304 14.654C12.6811 14.3431 13.3632 13.8873 13.9377 13.3127C14.5123 12.7382 14.9681 12.0561 15.279 11.3054C15.59 10.5547 15.75 9.75005 15.75 8.9375C15.75 8.12495 15.59 7.32035 15.279 6.56965C14.9681 5.81894 14.5123 5.13684 13.9377 4.56228C13.3632 3.98771 12.6811 3.53195 11.9304 3.221C11.1797 2.91004 10.3751 2.75 9.5625 2.75C8.74995 2.75 7.94535 2.91004 7.19465 3.221C6.44394 3.53195 5.76184 3.98771 5.18728 4.56228C4.61271 5.13684 4.15695 5.81894 3.846 6.56965C3.53504 7.32035 3.375 8.12495 3.375 8.9375C3.375 9.75005 3.53504 10.5547 3.846 11.3054C4.15695 12.0561 4.61271 12.7382 5.18728 13.3127C5.76184 13.8873 6.44394 14.3431 7.19465 14.654C7.94535 14.965 8.74995 15.125 9.5625 15.125Z" fill="white"/>
</svg>
